Coordinates
version=1
nRows=7
nColumns=40
inDegrees=yes

Units are S.I. units (second, meters, Newtons, ...)
Angles are in degrees.

endheader
time	pelvis_tilt	pelvis_list	pelvis_rotation	pelvis_tx	pelvis_ty	pelvis_tz	hip_flexion_r	hip_adduction_r	hip_rotation_r	knee_angle_r	knee_angle_r_beta	ankle_angle_r	subtalar_angle_r	mtp_angle_r	hip_flexion_l	hip_adduction_l	hip_rotation_l	knee_angle_l	knee_angle_l_beta	ankle_angle_l	subtalar_angle_l	mtp_angle_l	lumbar_extension	lumbar_bending	lumbar_rotation	arm_flex_r	arm_add_r	arm_rot_r	elbow_flex_r	pro_sup_r	wrist_flex_r	wrist_dev_r	arm_flex_l	arm_add_l	arm_rot_l	elbow_flex_l	pro_sup_l	wrist_flex_l	wrist_dev_l
     22.01000000	     -2.26107237	     -5.84028532	      0.67214947	      1.09480134	      0.93082166	      0.39465428	     27.01735513	     -5.62086810	     -7.07102709	     60.04723168	     60.04723168	      2.65015728	    -12.52325908	     -0.80636115	     16.22997877	     -5.97346593	     -5.51773047	     26.43547029	     26.43547029	     14.90955825	    -12.18803599	      2.19228004	    -11.24768271	      4.35735854	      1.62166568	      2.70676455	    -14.39088937	     -7.64041403	     30.37997523	     42.72350563	      0.00000000	      0.00000000	     15.85511119	    -16.47376054	      8.42871536	     42.37502760	     42.75519007	      0.00000000	      0.00000000
     22.02414286	     -2.49289340	     -5.85584799	      0.17170151	      1.09355548	      0.93161918	      0.39398824	     27.95849246	     -5.58252519	     -7.20363287	     57.36302473	     57.36302473	      2.79207574	    -12.20944016	     -0.67219257	     15.70436583	     -5.97431333	     -5.97333710	     25.80114369	     25.80114369	     15.02110192	    -12.13611991	      2.28934140	    -11.15656694	      4.35352685	      1.17149359	      1.83027207	    -14.88621805	     -7.67777802	     29.94866794	     42.76001501	      0.00000000	      0.00000000	     16.53029180	    -16.92194862	      8.21872609	     42.62180988	     42.80604143	      0.00000000	      0.00000000
     22.03828571	     -2.58745906	     -5.87679632	     -0.31720781	      1.09241646	      0.93263972	      0.39333677	     28.50469794	     -5.44964222	     -7.34851342	     54.25218040	     54.25218040	      2.78013416	    -11.97361158	     -0.56723769	     14.92453481	     -5.98205801	     -6.51718665	     24.97791464	     24.97791464	     15.10943042	    -11.91345888	      2.36200782	    -11.24764202	      4.40629436	      0.94937271	      0.90339587	    -15.41866095	     -7.75416090	     29.49334644	     42.80550814	      0.00000000	      0.00000000	     17.26494051	    -17.21458021	      7.98944816	     43.06120778	     42.86628433	      0.00000000	      0.00000000
     22.05242857	     -2.52507430	     -5.87764203	     -0.84937057	      1.09141891	      0.93372760	      0.39292119	     28.67574968	     -5.23326403	     -7.44780528	     50.78028759	     50.78028759	      2.45246129	    -11.82372199	     -0.90693820	     13.95183173	     -6.01284351	     -7.24001312	     24.15207033	     24.15207033	     15.20888326	    -11.50855235	      2.17898338	    -11.53619625	      4.32622526	      1.03881763	     -0.15022749	    -15.98117265	     -8.00265420	     29.05318935	     42.89646959	      0.00000000	      0.00000000	     18.15241079	    -17.39383932	      7.62637261	     43.85429197	     42.98057212	      0.00000000	      0.00000000
     22.06657143	     -2.68714757	     -5.93513162	     -1.28737813	      1.09018967	      0.93429577	      0.39253309	     28.93670371	     -5.00509564	     -7.77537944	     47.07771036	     47.07771036	      2.13071457	    -11.42435993	     -0.81373218	     13.38484988	     -6.07959945	     -7.76582597	     23.53423031	     23.53423031	     15.28537995	    -11.24205969	      2.02799463	    -11.57513518	      4.34660463	      0.74633368	     -1.02891548	    -16.45134599	     -8.27793067	     28.86527697	     42.95911145	      0.00000000	      0.00000000	     18.75541007	    -17.70725455	      7.39592935	     44.37125008	     43.05470118	      0.00000000	      0.00000000
     22.08071429	     -2.82328419	     -5.90593735	     -1.70696094	      1.08902930	      0.93460653	      0.39225162	     29.03573959	     -4.80327400	     -8.05143465	     43.18029330	     43.18029330	      1.81048727	    -10.87185182	     -0.68149176	     12.84452212	     -6.05781721	     -8.29797551	     23.01987042	     23.01987042	     15.40617363	    -10.96063066	      1.78131220	    -11.62171691	      4.28636361	      0.53167882	     -1.88147254	    -16.85896047	     -8.62549461	     28.79124951	     43.02303710	      0.00000000	      0.00000000	     19.40400193	    -18.03039996	      7.15926026	     44.97870072	     43.13180853	      0.00000000	      0.00000000
     22.09485714	     -2.98687511	     -5.87007718	     -2.10312205	      1.08791506	      0.93464485	      0.39217708	     28.90866071	     -4.56096077	     -8.42184325	     38.82815225	     38.82815225	      0.49615790	    -10.57030013	     -3.11082849	     12.33738509	     -6.05659619	     -8.89046917	     22.46303283	     22.46303283	     15.14482846	    -10.72139102	      0.54627771	    -11.69770966	      4.20158206	      0.52050439	     -3.16829219	    -16.89834597	    -11.19056207	     29.93299083	     43.48116927	      0.00000000	      0.00000000	     19.89545097	    -18.26590111	      6.68392579	     46.17656207	     43.56137228	      0.00000000	      0.00000000
